<?xml version="1.0" encoding="UTF-8"?>
<svg xmlns="http://www.w3.org/2000/svg" version="1.1" viewBox="0 0 128 68">
  <defs>
    <style>
      .cls-1 {
        fill: #252422;
      }
    </style>
  </defs>
  <!-- Generator: Adobe Illustrator 28.7.1, SVG Export Plug-In . SVG Version: 1.2.0 Build 142)  -->
  <g>
    <g id="Capa_1">
      <g>
        <path class="cls-1" d="M21.91,21.65s-.11,0-.17,0c-.06,0-.17,0-.17,0-7.69.13-13.05,4.28-13.05,10.09s5.37,9.97,13.05,10.09c0,0,.11,0,.17,0,.06,0,.17,0,.17,0,7.68-.12,13.05-4.28,13.05-10.09s-5.37-9.97-13.05-10.09M21.74,38.54h0c-5.62-.06-9.24-2.73-9.24-6.8s3.63-6.74,9.24-6.8c5.62.06,9.25,2.73,9.25,6.8s-3.63,6.74-9.24,6.8"/>
        <path class="cls-1" d="M106.9,21.65s-.11,0-.17,0c-.06,0-.17,0-.17,0-7.69.13-13.05,4.28-13.05,10.09s5.37,9.97,13.05,10.09c0,0,.11,0,.17,0,.06,0,.17,0,.17,0,7.68-.12,13.05-4.28,13.05-10.09s-5.37-9.97-13.05-10.09M106.73,38.54h0c-5.62-.06-9.24-2.73-9.24-6.8s3.63-6.74,9.24-6.8c5.62.06,9.25,2.73,9.25,6.8s-3.63,6.74-9.24,6.8"/>
        <path class="cls-1" d="M78.62,21.65s-.11,0-.17,0c-.06,0-.17,0-.17,0-3.66.06-6.8,1.03-9.08,2.66v-1.72h-3.98v25.55h3.98v-8.97c2.28,1.63,5.41,2.6,9.07,2.66,0,0,.11,0,.17,0,.06,0,.17,0,.17,0,7.68-.12,13.05-4.28,13.05-10.09s-5.37-9.97-13.05-10.09M78.45,38.54h0c-5.62-.06-9.24-2.73-9.24-6.8s3.63-6.74,9.24-6.8c5.62.06,9.25,2.73,9.25,6.8s-3.63,6.74-9.24,6.8"/>
        <path class="cls-1" d="M50.26,21.65s-.11,0-.17,0c-.06,0-.17,0-.17,0-3.66.06-6.8,1.03-9.08,2.66v-1.72h-3.98v25.55h3.98v-8.97c2.28,1.63,5.41,2.6,9.07,2.66,0,0,.11,0,.17,0,.06,0,.17,0,.17,0,7.68-.12,13.05-4.28,13.05-10.09s-5.37-9.97-13.05-10.09M50.09,38.54h0c-5.62-.06-9.24-2.73-9.24-6.8s3.63-6.74,9.24-6.8c5.62.06,9.25,2.73,9.25,6.8s-3.63,6.74-9.24,6.8"/>
      </g>
    </g>
  </g>
</svg>